<?xml version="1.0" encoding="UTF-8"?>
<svg width="128" height="128" version="1.1" viewBox="0 0 33.867 33.867" xmlns="http://www.w3.org/2000/svg">
<g transform="translate(-32.279 -138.64)">
<g transform="matrix(.45526 0 0 .45526 33.984 140.17)">
<path d="m33.468 66.938c-18.454 0-33.468-15.014-33.468-33.469s15.014-33.469 33.468-33.469c18.455 0 33.469 15.014 33.469 33.469 0 5.621-1.421 11.161-4.116 16.076l4.608 17.2-16.849-4.516c-5.172 3.084-11.069 4.709-17.112 4.709z" fill="#fff"/>
<path d="m33.468 67.184c-18.454 0-33.468-15.014-33.468-33.469s15.014-33.469 33.468-33.469c18.455 0 33.469 15.014 33.469 33.469 0 5.621-1.421 11.161-4.116 16.076l4.608 17.2-16.849-4.516c-5.172 3.084-11.069 4.709-17.112 4.709zm0-62.938c-16.249 0-29.468 13.22-29.468 29.469s13.219 29.469 29.468 29.469c5.582 0 11.021-1.574 15.729-4.554l0.74-0.468 11.835 3.171-3.243-12.1 0.419-0.72c2.609-4.484 3.988-9.602 3.988-14.799 0-16.248-13.219-29.468-29.468-29.468z"/>
<path d="m25.515 45.296q-2.3937 0-4.2817-0.97772-1.8543-0.97772-2.9332-3.0343-1.0451-2.0566-1.0451-5.2595 0-3.3377 1.1126-5.428 1.1126-2.0903 3.0006-3.068 1.9217-0.97772 4.3492-0.97772 1.3823 0 2.6634 0.30343 1.2812 0.26972 2.0903 0.67429l-0.91029 2.4612q-0.80915-0.30343-1.888-0.57315t-2.0229-0.26972q-5.3269 0-5.3269 6.844 0 3.2703 1.2812 5.0235 1.3149 1.7194 3.8772 1.7194 1.4834 0 2.596-0.30343 1.1463-0.30343 2.0903-0.74172v2.6297q-0.91029 0.472-2.0229 0.708-1.0789 0.26972-2.6297 0.26972zm11.901-0.33714h-2.9669v-25.623h2.9669zm7.2486-24.848q0.67429 0 1.18 0.472 0.53943 0.43829 0.53943 1.416 0 0.94401-0.53943 1.416-0.50572 0.472-1.18 0.472-0.74172 0-1.2474-0.472-0.50572-0.472-0.50572-1.416 0-0.97772 0.50572-1.416 0.50572-0.472 1.2474-0.472zm1.4497 6.7766v18.071h-2.9669v-18.071z" aria-label="cli"/>
</g>
</g>
</svg>
